HIERARCHY
ROOT Hips
{
	OFFSET 0.000000 8.830580 0.000000
	CHANNELS 6 Xposition Yposition Zposition Zrotation Yrotation Xrotation 
	JOINT Spine
	{
		OFFSET 0.000000 0.010000 0.000000
		CHANNELS 3 Zrotation Yrotation Xrotation
		JOINT Spine1
		{
			OFFSET 0.000000 2.459130 0.000000
			CHANNELS 3 Zrotation Yrotation Xrotation
			JOINT Neck
			{
				OFFSET 0.000000 2.484630 0.000000
				CHANNELS 3 Zrotation Yrotation Xrotation
				JOINT Head_virtual
				{
					OFFSET 0.000000 0.000000 0.000000
					CHANNELS 3 Zrotation Yrotation Xrotation
					JOINT Head
					{
						OFFSET 0.000000 0.927525 0.000000
						CHANNELS 3 Zrotation Yrotation Xrotation
						End Site
						{
							OFFSET 0.000000 0.000000 0.000000
						}
					}
				}
				JOINT LeftUpArm_virtual
				{
					OFFSET 0.000000 0.000000 0.000000
					CHANNELS 3 Zrotation Yrotation Xrotation
					JOINT LeftUpArm
					{
						OFFSET 1.248820 0.000000 0.000000
						CHANNELS 3 Zrotation Yrotation Xrotation
						JOINT LeftForeArm
						{
							OFFSET 2.597580 0.000000 0.000000
							CHANNELS 3 Zrotation Yrotation Xrotation
							JOINT LeftHand
							{
								OFFSET 2.455420 0.000000 0.000000
								CHANNELS 3 Zrotation Yrotation Xrotation
								End Site
								{
									OFFSET 0.000000 0.000000 0.000000
								}
							}
						}
					}
				}
				JOINT RightUpArm_virtual
				{
					OFFSET -0.000000 -0.000000 -0.000000
					CHANNELS 3 Zrotation Yrotation Xrotation
					JOINT RightUpArm
					{
						OFFSET -1.248820 -0.000000 -0.000000
						CHANNELS 3 Zrotation Yrotation Xrotation
						JOINT RightForeArm
						{
							OFFSET -2.597580 -0.000000 -0.000000
							CHANNELS 3 Zrotation Yrotation Xrotation
							JOINT RightHand
							{
								OFFSET -2.455420 -0.000000 -0.000000
								CHANNELS 3 Zrotation Yrotation Xrotation
								End Site
								{
									OFFSET 0.000000 0.000000 0.000000
								}
							}
						}
					}
				}
			}
		}
	}
	JOINT LeftUpLeg
	{
		OFFSET 1.271939 0.000000 0.000000
		CHANNELS 3 Zrotation Yrotation Xrotation
		JOINT LeftLowLeg
		{
			OFFSET 0.000000 -4.342910 0.000000
			CHANNELS 3 Zrotation Yrotation Xrotation
			JOINT LeftFoot
			{
				OFFSET 0.000000 -4.487670 0.000000
				CHANNELS 3 Zrotation Yrotation Xrotation
				JOINT LeftToeBase
				{
					OFFSET 0.000000 0.000000 1.515070
					CHANNELS 3 Zrotation Yrotation Xrotation
					End Site
					{
						OFFSET 0.000000 0.000000 0.000000
					}
				}
			}
		}
	}
	JOINT RightUpLeg
	{
		OFFSET -1.271939 0.000000 0.000000
		CHANNELS 3 Zrotation Yrotation Xrotation
		JOINT RightLowLeg
		{
			OFFSET 0.000000 -4.342910 0.000000
			CHANNELS 3 Zrotation Yrotation Xrotation
			JOINT RightFoot
			{
				OFFSET 0.000000 -4.487670 0.000000
				CHANNELS 3 Zrotation Yrotation Xrotation
				JOINT RightToeBase
				{
					OFFSET 0.000000 0.000000 1.515070
					CHANNELS 3 Zrotation Yrotation Xrotation
					End Site
					{
						OFFSET 0.000000 0.000000 0.000000
					}
				}
			}
		}
	}
}
MOTION
Frames: 8
Frame Time: 0.041667
-17.631736 9.153949 46.158624 179.211392 16.116885 -169.989736 -0.301769 -1.577803 -3.298422 -0.532607 1.062017 22.504078 0.000000 0.000000 0.000000 8.483208 6.465007 7.255733 -9.715332 -6.829063 -89.406314 -22.837000 -4.762930 9.075012 -43.728699 -29.147900 1.496000 -180.000000 -84.187302 180.000000 -34.107700 7.228750 -78.536499 27.432699 -1.625190 5.338013 37.222900 18.819799 21.194000 -180.000000 64.198998 -180.000000 -35.745201 14.971500 45.432201 -3.310623 3.655484 -10.535179 0.000000 0.000000 13.052800 -20.370090 11.411299 -6.652379 0.000000 0.000000 -19.241260 -5.247637 13.448945 -22.079935 0.000000 0.000000 27.510099 35.350088 3.485391 -4.179044 0.000000 0.000000 -18.402040 
-17.632865 9.153758 46.162173 179.209712 16.163897 -169.991091 -0.310249 -1.581747 -3.272858 -0.530546 1.059709 22.454249 0.000000 0.000000 0.000000 8.418504 6.500612 7.317697 -9.691425 -6.874677 -89.418585 -22.831900 -4.756110 9.015015 -43.755100 -29.082800 1.522370 -180.000000 -84.198303 180.000000 -34.170200 7.203070 -78.549500 27.440300 -1.611280 5.341003 37.270500 18.689600 21.106995 180.000000 64.213997 180.000000 -35.077000 15.192500 45.517300 -3.319817 3.667126 -10.550348 0.000000 0.000000 13.048200 -20.374375 11.440890 -6.657873 0.000000 0.000000 -19.241480 -5.260866 13.451865 -22.139707 0.000000 0.000000 27.552999 35.324183 3.488067 -4.139982 0.000000 0.000000 -18.397620 
-17.634019 9.153508 46.166351 179.201660 16.229233 -170.000307 -0.325337 -1.576081 -3.244489 -0.536564 1.064262 22.395673 0.000000 0.000000 0.000000 8.366891 6.540692 7.407129 -9.705773 -6.905221 -89.428660 -22.827999 -4.758050 9.029999 -43.758202 -29.055000 1.480420 -180.000000 -84.206200 180.000000 -34.223301 7.140780 -78.605400 27.432400 -1.582880 5.356995 37.360901 18.588600 21.243011 -180.000000 64.205002 180.000000 -35.269100 15.375300 45.705200 -3.338611 3.726985 -10.558084 0.000000 0.000000 13.035900 -20.379257 11.436720 -6.657674 0.000000 0.000000 -19.223660 -5.281969 13.470152 -22.195716 0.000000 0.000000 27.589500 35.295797 3.500087 -4.101163 0.000000 0.000000 -18.411940 
-17.635361 9.153094 46.171272 179.191564 16.285053 -169.992265 -0.330317 -1.561012 -3.227079 -0.553001 1.072517 22.337023 0.000000 0.000000 0.000000 8.373226 6.540410 7.498108 -9.747526 -6.916508 -89.445421 -22.827801 -4.736580 9.070007 -43.746799 -29.087400 1.451930 -180.000000 -84.208298 180.000000 -34.191700 7.095070 -78.703003 27.476801 -1.615850 5.312988 37.444901 18.690201 21.549988 -180.000000 64.016998 -180.000000 -35.873699 14.496900 45.722301 -3.353130 3.724831 -10.574896 0.000000 0.000000 12.996700 -20.362511 11.485598 -6.654033 0.000000 0.000000 -19.222920 -5.314164 13.503924 -22.263692 0.000000 0.000000 27.608299 35.294274 3.510129 -4.071952 0.000000 0.000000 -18.415940 
-17.636292 9.152854 46.175096 179.185872 16.321198 -170.005292 -0.336319 -1.562117 -3.202802 -0.552572 1.072198 22.308716 0.000000 0.000000 0.000000 8.367070 6.557943 7.560938 -9.747476 -6.926084 -89.465180 -22.800699 -4.756830 9.071991 -43.786701 -29.058599 1.411040 180.000000 -84.193298 -180.000000 -34.198601 7.069810 -78.701797 27.482300 -1.560320 5.337006 37.541698 18.687500 21.699005 180.000000 63.905998 180.000000 -36.163502 14.324300 45.616100 -3.364178 3.761128 -10.580450 0.000000 0.000000 12.987700 -20.360648 11.489209 -6.648199 0.000000 0.000000 -19.206670 -5.322239 13.497839 -22.282931 0.000000 0.000000 27.599300 35.315671 3.535166 -4.040101 0.000000 0.000000 -18.374110 
-17.637384 9.152851 46.178878 179.182299 16.334296 -170.012939 -0.334899 -1.569140 -3.174542 -0.544430 1.067896 22.263874 0.000000 0.000000 0.000000 8.375193 6.566159 7.651426 -9.782971 -6.930295 -89.478424 -22.792400 -4.751600 9.018005 -43.847801 -29.017401 1.457250 180.000000 -84.204002 -180.000000 -34.235298 7.060710 -78.708900 27.508101 -1.486570 5.368988 37.598301 18.655800 21.570007 180.000000 63.943001 180.000000 -35.644699 14.878000 45.570400 -3.370930 3.788402 -10.602235 0.000000 0.000000 12.996700 -20.356976 11.463938 -6.631883 0.000000 0.000000 -19.200750 -5.329755 13.507894 -22.292287 0.000000 0.000000 27.577299 35.317332 3.516701 -4.031002 0.000000 0.000000 -18.409760 
-17.638310 9.152667 46.182133 179.174059 16.346966 -170.010621 -0.339939 -1.578175 -3.148796 -0.524168 1.066461 22.194549 0.000000 0.000000 0.000000 8.382174 6.564872 7.773283 -9.779723 -6.954610 -89.502452 -22.825800 -4.737510 9.144989 -43.779099 -29.107500 1.357190 -180.000000 -84.236702 180.000000 -34.148102 7.005520 -78.679703 27.507000 -1.477250 5.308990 37.655300 18.705200 21.872986 -180.000000 63.806000 -180.000000 -36.091900 14.260500 46.013802 -3.379601 3.774222 -10.635534 0.000000 0.000000 13.015600 -20.329914 11.502138 -6.630334 0.000000 0.000000 -19.217670 -5.349379 13.526572 -22.317275 0.000000 0.000000 27.563700 35.313854 3.504018 -4.027240 0.000000 0.000000 -18.409980 
-17.639798 9.152608 46.186355 179.168169 16.367302 -170.014593 -0.310931 -1.545119 -3.098778 -0.555938 1.082002 22.130255 0.000000 0.000000 0.000000 8.454236 6.547708 7.821164 -9.787140 -6.918263 -89.511539 -22.780600 -4.796540 9.037994 -43.873501 -28.987499 1.441110 -180.000000 -84.212303 -180.000000 -34.135700 7.022910 -78.629997 27.558800 -1.518990 5.391998 37.682301 18.889200 21.688995 180.000000 63.877998 180.000000 -35.120899 14.848800 44.969200 -3.389715 3.766997 -10.664309 0.000000 0.000000 13.026300 -20.367720 11.505747 -6.633278 0.000000 0.000000 -19.191020 -5.365249 13.529996 -22.341584 0.000000 0.000000 27.549299 35.332927 3.511999 -3.999123 0.000000 0.000000 -18.406800 
